<svg width="115" height="115" viewBox="0 0 115 115" fill="none" xmlns="http://www.w3.org/2000/svg">
<path fill-rule="evenodd" clip-rule="evenodd" d="M10 10H105V105H10V10ZM33.1466 40.0163L47.5711 37.4509L48.9314 45.1C34.507 47.6654 29.9636 59.8525 31.9463 71.0007C33.929 82.1489 43.6677 91.0809 59.2164 88.3156C73.1934 85.8298 76.8891 74.4476 74.9169 63.3584C74.1609 59.1076 72.4829 55.9263 71.7384 54.8671C74.3987 55.3076 80.0602 58.106 81.4243 65.7761L89.1637 64.3996C87.438 54.6966 82.1086 48.8519 74.7642 45.749C70.3992 43.9047 63.0432 42.5902 57.6406 43.5511L56.2802 35.902L71.5211 33.1914L70.0206 24.7545L31.6461 31.5793L33.1466 40.0163ZM53.913 54.5252L54.1085 52.8288L56.9773 53.1595L56.7817 54.8559L58.7589 55.0839L58.446 57.7982L56.4688 57.5703L56.3282 58.7894C58.8409 58.9927 60.1154 59.6417 60.7966 61.3557C61.9003 61.169 63.3399 61.4566 64.3514 62.2142C65.3629 62.9718 67.1985 66.5837 64.0067 70.7637L63.7733 72.7879L62.6979 72.6639L62.5083 74.3086L63.5837 74.4326L63.3212 76.7099L42.5723 74.3177L42.8349 72.0404L43.9103 72.1644L44.0999 70.5197L43.0245 70.3957L43.2579 68.3715C41.1011 63.5749 43.7104 60.4755 44.8677 59.9679C46.0251 59.4604 47.4923 59.5079 48.5244 59.9408C49.5778 58.4268 50.9665 58.0849 53.4595 58.4587L53.6 57.2395L51.6229 57.0116L51.9358 54.2973L53.913 54.5252ZM55.9637 61.9359L55.1374 69.1031L56.4057 69.2494C58.4365 64.8914 59.185 62.7043 57.2854 61.6191C56.8794 61.4936 56.5878 61.484 55.9637 61.9359ZM52.3084 68.777L53.1348 61.6098C52.6298 61.0277 52.3438 60.9706 51.9198 61.0005C49.8232 61.625 50.0544 63.925 51.0402 68.6308L52.3084 68.777ZM47.5616 62.5958C47.5287 64.4322 47.5768 65.6116 47.9931 68.4611L45.887 68.2183C45.7737 67.583 45.636 67.0259 45.5152 66.537L45.515 66.536L45.5145 66.5341L45.5141 66.5324C45.4552 66.294 45.4003 66.0719 45.3543 65.8649C44.7208 63.0143 46.1019 61.2647 47.5616 62.5958ZM59.4115 69.7775C60.4654 67.0976 60.7806 65.96 61.1665 64.1644C62.8909 63.2004 63.8377 65.2183 62.5721 67.8499C62.4796 68.0422 62.3749 68.2475 62.2624 68.4678C62.0335 68.9164 61.7727 69.4276 61.5178 70.0204L59.4115 69.7775ZM54.7668 72.6287C54.6733 73.4394 53.9404 74.0209 53.1297 73.9274C52.319 73.8339 51.7375 73.101 51.831 72.2903C51.9245 71.4796 52.6574 70.8981 53.4681 70.9916C54.2788 71.0851 54.8603 71.818 54.7668 72.6287Z" class="button--fine"/>
<path d="M54.7668 72.6287C54.6733 73.4394 53.9404 74.0209 53.1297 73.9274C52.319 73.8339 51.7375 73.101 51.831 72.2903C51.9245 71.4796 52.6574 70.8981 53.4681 70.9916C54.2788 71.0851 54.8603 71.818 54.7668 72.6287Z" class="button--trickstar"/>
<path d="M55.9637 61.9359L55.1374 69.1031L56.4057 69.2494C58.4365 64.8914 59.185 62.7043 57.2854 61.6191C56.8794 61.4936 56.5878 61.484 55.9637 61.9359Z" class="button--trickstar"/>
<path d="M61.1665 64.1644C60.7806 65.96 60.4654 67.0976 59.4115 69.7775L61.5178 70.0204C61.7727 69.4276 62.0335 68.9164 62.2624 68.4678C62.3749 68.2475 62.4796 68.0422 62.5721 67.8499C63.8377 65.2183 62.8909 63.2004 61.1665 64.1644Z" class="button--trickstar"/>
<path d="M53.1348 61.6098L52.3084 68.777L51.0402 68.6308C50.0544 63.925 49.8232 61.625 51.9198 61.0005C52.3438 60.9706 52.6298 61.0277 53.1348 61.6098Z" class="button--trickstar"/>
<path d="M47.5616 62.5958C47.5287 64.4322 47.5768 65.6116 47.9931 68.4611L45.887 68.2183C45.7737 67.583 45.636 67.0259 45.5152 66.537L45.515 66.536C45.4557 66.2963 45.4005 66.0729 45.3543 65.8649C44.7208 63.0143 46.1019 61.2647 47.5616 62.5958Z" class="button--trickstar"/>
<path fill-rule="evenodd" clip-rule="evenodd" d="M47.5711 37.4509L33.1466 40.0163L31.6461 31.5793L70.0206 24.7545L71.5211 33.1914L56.2802 35.902L57.6406 43.5511C63.0432 42.5902 70.3992 43.9047 74.7642 45.749C82.1086 48.8519 87.438 54.6966 89.1637 64.3996L81.4243 65.7761C80.0602 58.106 74.3987 55.3076 71.7384 54.8671C72.4829 55.9263 74.1609 59.1076 74.9169 63.3584C76.8891 74.4476 73.1934 85.8298 59.2164 88.3156C43.6677 91.0809 33.929 82.1489 31.9463 71.0007C29.9636 59.8525 34.507 47.6654 48.9314 45.1L47.5711 37.4509ZM53.913 54.5252L54.1085 52.8288L56.9773 53.1595L56.7817 54.8559L58.7589 55.0839L58.446 57.7982L56.4688 57.5703L56.3282 58.7894C58.8409 58.9927 60.1154 59.6417 60.7966 61.3557C61.9003 61.169 63.3399 61.4566 64.3514 62.2142C65.3629 62.9718 67.1985 66.5837 64.0067 70.7637L63.7733 72.7879L62.6979 72.6639L62.5083 74.3086L63.5837 74.4326L63.3212 76.7099L42.5723 74.3177L42.8349 72.0404L43.9103 72.1644L44.0999 70.5197L43.0245 70.3957L43.2579 68.3715C41.1011 63.5749 43.7104 60.4755 44.8677 59.9679C46.0251 59.4604 47.4923 59.5079 48.5244 59.9408C49.5778 58.4268 50.9665 58.0849 53.4595 58.4587L53.6 57.2395L51.6229 57.0116L51.9358 54.2973L53.913 54.5252Z" class="button--trickstar"/>
<path fill-rule="evenodd" clip-rule="evenodd" d="M54.1085 52.8288L53.913 54.5252L51.9358 54.2973L51.6229 57.0116L53.6 57.2395L53.4595 58.4587C50.9665 58.0849 49.5778 58.4268 48.5244 59.9408C47.4923 59.5079 46.0251 59.4604 44.8677 59.9679C43.7104 60.4755 41.1011 63.5749 43.2579 68.3715L43.0245 70.3957L44.0999 70.5197L43.9103 72.1644L42.8349 72.0404L42.5723 74.3177L63.3212 76.7099L63.5837 74.4326L62.5083 74.3086L62.6979 72.6639L63.7733 72.7879L64.0067 70.7637C67.1985 66.5837 65.3629 62.9718 64.3514 62.2142C63.3399 61.4566 61.9003 61.169 60.7966 61.3557C60.1154 59.6417 58.8409 58.9927 56.3282 58.7894L56.4688 57.5703L58.446 57.7982L58.7589 55.0839L56.7817 54.8559L56.9773 53.1595L54.1085 52.8288ZM54.7668 72.6287C54.6733 73.4394 53.9404 74.0209 53.1297 73.9274C52.319 73.8339 51.7375 73.101 51.831 72.2903C51.9245 71.4796 52.6574 70.8981 53.4681 70.9916C54.2788 71.0851 54.8603 71.818 54.7668 72.6287ZM55.9637 61.9359L55.1374 69.1031L56.4057 69.2494C58.4365 64.8914 59.185 62.7043 57.2854 61.6191C56.8794 61.4936 56.5878 61.484 55.9637 61.9359ZM61.1665 64.1644C60.7806 65.96 60.4654 67.0976 59.4115 69.7775L61.5178 70.0204C61.7727 69.4276 62.0335 68.9164 62.2624 68.4678C62.3749 68.2475 62.4796 68.0422 62.5721 67.8499C63.8377 65.2183 62.8909 63.2004 61.1665 64.1644ZM53.1348 61.6098L52.3084 68.777L51.0402 68.6308C50.0544 63.925 49.8232 61.625 51.9198 61.0005C52.3438 60.9706 52.6298 61.0277 53.1348 61.6098ZM47.5616 62.5958C47.5287 64.4322 47.5768 65.6116 47.9931 68.4611L45.887 68.2183C45.7737 67.583 45.636 67.0259 45.5152 66.537L45.515 66.536C45.4557 66.2963 45.4005 66.0729 45.3543 65.8649C44.7208 63.0143 46.1019 61.2647 47.5616 62.5958ZM33.1466 40.0163L47.5711 37.4509L48.9314 45.1C34.507 47.6654 29.9636 59.8525 31.9463 71.0007C33.929 82.1489 43.6677 91.0809 59.2164 88.3156C73.1934 85.8298 76.8891 74.4476 74.9169 63.3584C74.1609 59.1076 72.4829 55.9263 71.7384 54.8671C74.3987 55.3076 80.0602 58.106 81.4243 65.7761L89.1637 64.3996C87.438 54.6966 82.1086 48.8519 74.7642 45.749C70.3992 43.9047 63.0432 42.5902 57.6406 43.5511L56.2802 35.902L71.5211 33.1914L70.0206 24.7545L31.6461 31.5793L33.1466 40.0163Z" class="button--trickstar"/>
</svg>
